<svg xmlns="http://www.w3.org/2000/svg" version="1.1" xmlns:xlink="http://www.w3.org/1999/xlink" xmlns:svgjs="http://svgjs.dev/svgjs" width="1440" height="560" preserveAspectRatio="none" viewBox="0 0 1440 560"><g mask="url(&quot;#SvgjsMask1072&quot;)" fill="none"><rect width="1440" height="560" x="0" y="0" fill="rgba(25, 99, 102, 1)"></rect><use xlink:href="#SvgjsG1074" transform="translate(0, 0)" fill="rgba(5, 65, 65, 1)"></use><use xlink:href="#SvgjsG1074" transform="translate(0, 440)" fill="rgba(5, 65, 65, 1)"></use><use xlink:href="#SvgjsG1074" transform="translate(440, 0)" fill="rgba(5, 65, 65, 1)"></use><use xlink:href="#SvgjsG1074" transform="translate(440, 440)" fill="rgba(5, 65, 65, 1)"></use><use xlink:href="#SvgjsG1074" transform="translate(880, 0)" fill="rgba(5, 65, 65, 1)"></use><use xlink:href="#SvgjsG1074" transform="translate(880, 440)" fill="rgba(5, 65, 65, 1)"></use><use xlink:href="#SvgjsG1074" transform="translate(1320, 0)" fill="rgba(5, 65, 65, 1)"></use><use xlink:href="#SvgjsG1074" transform="translate(1320, 440)" fill="rgba(5, 65, 65, 1)"></use></g><defs><mask id="SvgjsMask1072"><rect width="1440" height="560" fill="#ffffff"></rect></mask><g id="SvgjsG1073"><path d="M10.26 11.29a46.75 46.75 0 0 1 0-0.66c0-0.19 0-0.37 0.01-0.56 0-1.12-0.07-2.23-0.63-3.09A2.82 2.82 0 0 0 9.49 6.77c-0.05-0.07-0.11-0.13-0.17-0.19-0.7-0.75-1.76-1.09-2.85-1.36l0 0.12c0 0.14 0 0.27 0 0.41C7.55 6.02 8.52 6.35 9.09 7.09c0.57 0.73 0.66 1.75 0.67 2.85a35.1 35.1 0 0 1 0 0.68c0 0.18 0 0.36-0.01 0.55C9.75 12.38 9.83 13.59 10.52 14.48c0.27 0.34 0.61 0.61 0.99 0.82l0.44-0.34c-0.41-0.2-0.76-0.45-1.03-0.8-0.58-0.74-0.66-1.76-0.66-2.87z"></path><path d="M10.6 10.51c0 0.04 0 0.07 0 0.11 0 0.14 0 0.27-0.01 0.41 0.39 0.1 0.77 0.21 1.12 0.34l-1.08 0.84c0.02 0.2 0.04 0.4 0.08 0.59L12.24 11.6c0.31 0.16 0.59 0.35 0.81 0.59l-2 1.56c0.04 0.07 0.08 0.13 0.14 0.2 0.06 0.07 0.12 0.14 0.18 0.2L13.37 12.59c0.18 0.29 0.3 0.62 0.38 0.96L14.18 13.21C14.07 12.79 13.89 12.4 13.63 12.06c-0.69-0.89-1.85-1.26-3.03-1.55z m-5.32-5.05c0-0.04 0-0.09 0-0.13 0-0.13 0-0.26 0.01-0.4-1.07-0.27-2.04-0.6-2.62-1.33C2.41 3.26 2.25 2.85 2.17 2.41l-0.45 0.34C1.83 3.18 2 3.57 2.27 3.91c0.69 0.89 1.84 1.26 3.01 1.55z"></path><path d="M2.79 3.17c0.04 0.07 0.09 0.15 0.14 0.22 0.05 0.07 0.11 0.13 0.17 0.18L5.11 2.01c0.17 0.28 0.29 0.6 0.37 0.94-0.01 0.01-0.02 0.01-0.03 0.01l-1.5 1.18a5.82 5.82 0 0 0 0.55 0.21L5.57 3.51c0.06 0.57 0.06 1.19 0.05 1.82C5.61 6.73 5.59 8.17 6.39 9.19c0.69 0.88 1.84 1.26 3.02 1.55l0-0.13c0-0.13 0-0.26 0-0.39-0.38-0.1-0.75-0.2-1.09-0.33L9.38 9.06A5.82 5.82 0 0 0 9.3 8.47l-1.49 1.16c-0.01 0.01-0.01 0.01-0.02 0.02-0.31-0.16-0.59-0.35-0.82-0.58L8.97 7.51a1.97 1.97 0 0 0-0.15-0.22c-0.05-0.06-0.11-0.12-0.16-0.18l-2.01 1.56c-0.18-0.28-0.29-0.6-0.37-0.94 0.01-0.01 0.02-0.01 0.03-0.02L7.82 6.54a5.63 5.63 0 0 0-0.56-0.21l-1.07 0.84c-0.07-0.57-0.06-1.19-0.06-1.83C6.15 3.95 6.16 2.51 5.36 1.49c-0.27-0.34-0.6-0.61-0.96-0.83l-0.43 0.34c0.31 0.17 0.59 0.36 0.82 0.61L2.79 3.17z"></path></g><g id="SvgjsG1074"><use xlink:href="#SvgjsG1073" transform="translate(0, 0) scale(2)" fill="rgba(5, 65, 65, 1)"></use><use xlink:href="#SvgjsG1073" transform="translate(0, 44) scale(2)" fill="rgba(5, 65, 65, 1)"></use><use xlink:href="#SvgjsG1073" transform="translate(0, 88) scale(2)" fill="rgba(5, 65, 65, 1)"></use><use xlink:href="#SvgjsG1073" transform="translate(0, 132) scale(2)" fill="rgba(5, 65, 65, 1)"></use><use xlink:href="#SvgjsG1073" transform="translate(0, 176) scale(2)" fill="rgba(5, 65, 65, 1)"></use><use xlink:href="#SvgjsG1073" transform="translate(0, 220) scale(2)" fill="rgba(5, 65, 65, 1)"></use><use xlink:href="#SvgjsG1073" transform="translate(0, 264) scale(2)" fill="rgba(5, 65, 65, 1)"></use><use xlink:href="#SvgjsG1073" transform="translate(0, 308) scale(2)" fill="rgba(5, 65, 65, 1)"></use><use xlink:href="#SvgjsG1073" transform="translate(0, 352) scale(2)" fill="rgba(5, 65, 65, 1)"></use><use xlink:href="#SvgjsG1073" transform="translate(0, 396) scale(2)" fill="rgba(5, 65, 65, 1)"></use><use xlink:href="#SvgjsG1073" transform="translate(44, 0) scale(2)" fill="rgba(5, 65, 65, 1)"></use><use xlink:href="#SvgjsG1073" transform="translate(44, 44) scale(2)" fill="rgba(5, 65, 65, 1)"></use><use xlink:href="#SvgjsG1073" transform="translate(44, 88) scale(2)" fill="rgba(5, 65, 65, 1)"></use><use xlink:href="#SvgjsG1073" transform="translate(44, 132) scale(2)" fill="rgba(5, 65, 65, 1)"></use><use xlink:href="#SvgjsG1073" transform="translate(44, 176) scale(2)" fill="rgba(5, 65, 65, 1)"></use><use xlink:href="#SvgjsG1073" transform="translate(44, 220) scale(2)" fill="rgba(5, 65, 65, 1)"></use><use xlink:href="#SvgjsG1073" transform="translate(44, 264) scale(2)" fill="rgba(5, 65, 65, 1)"></use><use xlink:href="#SvgjsG1073" transform="translate(44, 308) scale(2)" fill="rgba(5, 65, 65, 1)"></use><use xlink:href="#SvgjsG1073" transform="translate(44, 352) scale(2)" fill="rgba(5, 65, 65, 1)"></use><use xlink:href="#SvgjsG1073" transform="translate(44, 396) scale(2)" fill="rgba(5, 65, 65, 1)"></use><use xlink:href="#SvgjsG1073" transform="translate(88, 0) scale(2)" fill="rgba(5, 65, 65, 1)"></use><use xlink:href="#SvgjsG1073" transform="translate(88, 44) scale(2)" fill="rgba(5, 65, 65, 1)"></use><use xlink:href="#SvgjsG1073" transform="translate(88, 88) scale(2)" fill="rgba(5, 65, 65, 1)"></use><use xlink:href="#SvgjsG1073" transform="translate(88, 132) scale(2)" fill="rgba(5, 65, 65, 1)"></use><use xlink:href="#SvgjsG1073" transform="translate(88, 176) scale(2)" fill="rgba(5, 65, 65, 1)"></use><use xlink:href="#SvgjsG1073" transform="translate(88, 220) scale(2)" fill="rgba(5, 65, 65, 1)"></use><use xlink:href="#SvgjsG1073" transform="translate(88, 264) scale(2)" fill="rgba(5, 65, 65, 1)"></use><use xlink:href="#SvgjsG1073" transform="translate(88, 308) scale(2)" fill="rgba(5, 65, 65, 1)"></use><use xlink:href="#SvgjsG1073" transform="translate(88, 352) scale(2)" fill="rgba(5, 65, 65, 1)"></use><use xlink:href="#SvgjsG1073" transform="translate(88, 396) scale(2)" fill="rgba(5, 65, 65, 1)"></use><use xlink:href="#SvgjsG1073" transform="translate(132, 0) scale(2)" fill="rgba(5, 65, 65, 1)"></use><use xlink:href="#SvgjsG1073" transform="translate(132, 44) scale(2)" fill="rgba(5, 65, 65, 1)"></use><use xlink:href="#SvgjsG1073" transform="translate(132, 88) scale(2)" fill="rgba(5, 65, 65, 1)"></use><use xlink:href="#SvgjsG1073" transform="translate(132, 132) scale(2)" fill="rgba(5, 65, 65, 1)"></use><use xlink:href="#SvgjsG1073" transform="translate(132, 176) scale(2)" fill="rgba(5, 65, 65, 1)"></use><use xlink:href="#SvgjsG1073" transform="translate(132, 220) scale(2)" fill="rgba(5, 65, 65, 1)"></use><use xlink:href="#SvgjsG1073" transform="translate(132, 264) scale(2)" fill="rgba(5, 65, 65, 1)"></use><use xlink:href="#SvgjsG1073" transform="translate(132, 308) scale(2)" fill="rgba(5, 65, 65, 1)"></use><use xlink:href="#SvgjsG1073" transform="translate(132, 352) scale(2)" fill="rgba(5, 65, 65, 1)"></use><use xlink:href="#SvgjsG1073" transform="translate(132, 396) scale(2)" fill="rgba(5, 65, 65, 1)"></use><use xlink:href="#SvgjsG1073" transform="translate(176, 0) scale(2)" fill="rgba(5, 65, 65, 1)"></use><use xlink:href="#SvgjsG1073" transform="translate(176, 44) scale(2)" fill="rgba(5, 65, 65, 1)"></use><use xlink:href="#SvgjsG1073" transform="translate(176, 88) scale(2)" fill="rgba(5, 65, 65, 1)"></use><use xlink:href="#SvgjsG1073" transform="translate(176, 132) scale(2)" fill="rgba(5, 65, 65, 1)"></use><use xlink:href="#SvgjsG1073" transform="translate(176, 176) scale(2)" fill="rgba(5, 65, 65, 1)"></use><use xlink:href="#SvgjsG1073" transform="translate(176, 220) scale(2)" fill="rgba(5, 65, 65, 1)"></use><use xlink:href="#SvgjsG1073" transform="translate(176, 264) scale(2)" fill="rgba(5, 65, 65, 1)"></use><use xlink:href="#SvgjsG1073" transform="translate(176, 308) scale(2)" fill="rgba(5, 65, 65, 1)"></use><use xlink:href="#SvgjsG1073" transform="translate(176, 352) scale(2)" fill="rgba(5, 65, 65, 1)"></use><use xlink:href="#SvgjsG1073" transform="translate(176, 396) scale(2)" fill="rgba(5, 65, 65, 1)"></use><use xlink:href="#SvgjsG1073" transform="translate(220, 0) scale(2)" fill="rgba(5, 65, 65, 1)"></use><use xlink:href="#SvgjsG1073" transform="translate(220, 44) scale(2)" fill="rgba(5, 65, 65, 1)"></use><use xlink:href="#SvgjsG1073" transform="translate(220, 88) scale(2)" fill="rgba(5, 65, 65, 1)"></use><use xlink:href="#SvgjsG1073" transform="translate(220, 132) scale(2)" fill="rgba(5, 65, 65, 1)"></use><use xlink:href="#SvgjsG1073" transform="translate(220, 176) scale(2)" fill="rgba(5, 65, 65, 1)"></use><use xlink:href="#SvgjsG1073" transform="translate(220, 220) scale(2)" fill="rgba(5, 65, 65, 1)"></use><use xlink:href="#SvgjsG1073" transform="translate(220, 264) scale(2)" fill="rgba(5, 65, 65, 1)"></use><use xlink:href="#SvgjsG1073" transform="translate(220, 308) scale(2)" fill="rgba(5, 65, 65, 1)"></use><use xlink:href="#SvgjsG1073" transform="translate(220, 352) scale(2)" fill="rgba(5, 65, 65, 1)"></use><use xlink:href="#SvgjsG1073" transform="translate(220, 396) scale(2)" fill="rgba(5, 65, 65, 1)"></use><use xlink:href="#SvgjsG1073" transform="translate(264, 0) scale(2)" fill="rgba(5, 65, 65, 1)"></use><use xlink:href="#SvgjsG1073" transform="translate(264, 44) scale(2)" fill="rgba(5, 65, 65, 1)"></use><use xlink:href="#SvgjsG1073" transform="translate(264, 88) scale(2)" fill="rgba(5, 65, 65, 1)"></use><use xlink:href="#SvgjsG1073" transform="translate(264, 132) scale(2)" fill="rgba(5, 65, 65, 1)"></use><use xlink:href="#SvgjsG1073" transform="translate(264, 176) scale(2)" fill="rgba(5, 65, 65, 1)"></use><use xlink:href="#SvgjsG1073" transform="translate(264, 220) scale(2)" fill="rgba(5, 65, 65, 1)"></use><use xlink:href="#SvgjsG1073" transform="translate(264, 264) scale(2)" fill="rgba(5, 65, 65, 1)"></use><use xlink:href="#SvgjsG1073" transform="translate(264, 308) scale(2)" fill="rgba(5, 65, 65, 1)"></use><use xlink:href="#SvgjsG1073" transform="translate(264, 352) scale(2)" fill="rgba(5, 65, 65, 1)"></use><use xlink:href="#SvgjsG1073" transform="translate(264, 396) scale(2)" fill="rgba(5, 65, 65, 1)"></use><use xlink:href="#SvgjsG1073" transform="translate(308, 0) scale(2)" fill="rgba(5, 65, 65, 1)"></use><use xlink:href="#SvgjsG1073" transform="translate(308, 44) scale(2)" fill="rgba(5, 65, 65, 1)"></use><use xlink:href="#SvgjsG1073" transform="translate(308, 88) scale(2)" fill="rgba(5, 65, 65, 1)"></use><use xlink:href="#SvgjsG1073" transform="translate(308, 132) scale(2)" fill="rgba(5, 65, 65, 1)"></use><use xlink:href="#SvgjsG1073" transform="translate(308, 176) scale(2)" fill="rgba(5, 65, 65, 1)"></use><use xlink:href="#SvgjsG1073" transform="translate(308, 220) scale(2)" fill="rgba(5, 65, 65, 1)"></use><use xlink:href="#SvgjsG1073" transform="translate(308, 264) scale(2)" fill="rgba(5, 65, 65, 1)"></use><use xlink:href="#SvgjsG1073" transform="translate(308, 308) scale(2)" fill="rgba(5, 65, 65, 1)"></use><use xlink:href="#SvgjsG1073" transform="translate(308, 352) scale(2)" fill="rgba(5, 65, 65, 1)"></use><use xlink:href="#SvgjsG1073" transform="translate(308, 396) scale(2)" fill="rgba(5, 65, 65, 1)"></use><use xlink:href="#SvgjsG1073" transform="translate(352, 0) scale(2)" fill="rgba(5, 65, 65, 1)"></use><use xlink:href="#SvgjsG1073" transform="translate(352, 44) scale(2)" fill="rgba(5, 65, 65, 1)"></use><use xlink:href="#SvgjsG1073" transform="translate(352, 88) scale(2)" fill="rgba(5, 65, 65, 1)"></use><use xlink:href="#SvgjsG1073" transform="translate(352, 132) scale(2)" fill="rgba(5, 65, 65, 1)"></use><use xlink:href="#SvgjsG1073" transform="translate(352, 176) scale(2)" fill="rgba(5, 65, 65, 1)"></use><use xlink:href="#SvgjsG1073" transform="translate(352, 220) scale(2)" fill="rgba(5, 65, 65, 1)"></use><use xlink:href="#SvgjsG1073" transform="translate(352, 264) scale(2)" fill="rgba(5, 65, 65, 1)"></use><use xlink:href="#SvgjsG1073" transform="translate(352, 308) scale(2)" fill="rgba(5, 65, 65, 1)"></use><use xlink:href="#SvgjsG1073" transform="translate(352, 352) scale(2)" fill="rgba(5, 65, 65, 1)"></use><use xlink:href="#SvgjsG1073" transform="translate(352, 396) scale(2)" fill="rgba(5, 65, 65, 1)"></use><use xlink:href="#SvgjsG1073" transform="translate(396, 0) scale(2)" fill="rgba(5, 65, 65, 1)"></use><use xlink:href="#SvgjsG1073" transform="translate(396, 44) scale(2)" fill="rgba(5, 65, 65, 1)"></use><use xlink:href="#SvgjsG1073" transform="translate(396, 88) scale(2)" fill="rgba(5, 65, 65, 1)"></use><use xlink:href="#SvgjsG1073" transform="translate(396, 132) scale(2)" fill="rgba(5, 65, 65, 1)"></use><use xlink:href="#SvgjsG1073" transform="translate(396, 176) scale(2)" fill="rgba(5, 65, 65, 1)"></use><use xlink:href="#SvgjsG1073" transform="translate(396, 220) scale(2)" fill="rgba(5, 65, 65, 1)"></use><use xlink:href="#SvgjsG1073" transform="translate(396, 264) scale(2)" fill="rgba(5, 65, 65, 1)"></use><use xlink:href="#SvgjsG1073" transform="translate(396, 308) scale(2)" fill="rgba(5, 65, 65, 1)"></use><use xlink:href="#SvgjsG1073" transform="translate(396, 352) scale(2)" fill="rgba(5, 65, 65, 1)"></use><use xlink:href="#SvgjsG1073" transform="translate(396, 396) scale(2)" fill="rgba(5, 65, 65, 1)"></use></g></defs></svg>